<?xml version="1.0" encoding="utf-8"?>
<svg xmlns="http://www.w3.org/2000/svg" xmlns:xlink="http://www.w3.org/1999/xlink" style="margin: auto; background: none; display: block; shape-rendering: auto;" width="200px" height="200px" viewBox="0 0 100 100" preserveAspectRatio="xMidYMid">
<g transform="translate(50 50)">
<g>
<animateTransform attributeName="transform" type="rotate" values="0;45" keyTimes="0;1" dur="0.2s" repeatCount="indefinite"></animateTransform><path d="M30.983866769659336 -8 L40.983866769659336 -8 L40.983866769659336 8 L30.983866769659336 8 A32 32 0 0 1 27.565756549699024 16.252048050714265 L27.565756549699024 16.252048050714265 L34.6368243615645 23.32311586257974 L23.323115862579744 34.6368243615645 L16.25204805071427 27.565756549699024 A32 32 0 0 1 8 30.983866769659336 L8 30.983866769659336 L8 40.983866769659336 L-7.999999999999996 40.983866769659336 L-7.9999999999999964 30.983866769659336 A32 32 0 0 1 -16.252048050714258 27.565756549699028 L-16.252048050714258 27.565756549699028 L-23.323115862579733 34.63682436156451 L-34.6368243615645 23.323115862579737 L-27.565756549699024 16.25204805071426 A32 32 0 0 1 -30.983866769659333 8.000000000000009 L-30.983866769659333 8.000000000000009 L-40.98386676965933 8.00000000000001 L-40.983866769659336 -8 L-30.983866769659336 -8.000000000000002 A32 32 0 0 1 -27.56575654969903 -16.252048050714254 L-27.56575654969903 -16.252048050714254 L-34.63682436156451 -23.323115862579726 L-23.32311586257974 -34.6368243615645 L-16.252048050714265 -27.565756549699024 A32 32 0 0 1 -8.00000000000001 -30.983866769659333 L-8.00000000000001 -30.983866769659333 L-8.000000000000012 -40.98386676965933 L7.999999999999997 -40.983866769659336 L7.999999999999999 -30.983866769659336 A32 32 0 0 1 16.252048050714254 -27.56575654969903 L16.252048050714254 -27.56575654969903 L23.323115862579726 -34.63682436156451 L34.6368243615645 -23.32311586257974 L27.565756549699024 -16.252048050714265 A32 32 0 0 1 30.983866769659333 -8.000000000000012 M0 -22A22 22 0 1 0 0 22 A22 22 0 1 0 0 -22" fill="#0e75c6"></path></g></g>
<!-- [ldio] generated by https://loading.io/ --></svg>